<svg width="25" height="25" viewBox="0 0 25 25" fill="none" xmlns="http://www.w3.org/2000/svg">
<path d="M4.25 21.5C4.82646 20.8544 7.52631 17.8833 8.31751 17.8833H16.683C17.8295 17.8833 20.17 20.3461 20.75 21.2143M24.5 12.5C24.5 19.1274 19.1274 24.5 12.5 24.5C5.87258 24.5 0.5 19.1274 0.5 12.5C0.5 5.87258 5.87258 0.5 12.5 0.5C19.1274 0.5 24.5 5.87258 24.5 12.5ZM16.7985 8.40995C16.7985 6.12056 14.8659 4.25 12.5004 4.25C10.1349 4.25 8.20217 6.12056 8.20217 8.40995C8.20217 10.6993 10.1349 12.5699 12.5004 12.5699C14.8658 12.5699 16.7985 10.6993 16.7985 8.40995Z" stroke="black"/>
</svg>
