<svg xmlns="http://www.w3.org/2000/svg" version="1.1" viewBox="0 0 1536 1024">
<path d="M 468,807 Z" fill="none" stroke="black" stroke-width="2"/>
<path d="M 472,806 L 471,807 L 474,807 L 475,808 L 487,808 L 488,807 L 490,807 L 491,808 L 492,807 L 495,807 L 488,807 L 487,806 Z" fill="none" stroke="black" stroke-width="2"/>
<path d="M 1017,800 L 1017,801 Z" fill="none" stroke="black" stroke-width="2"/>
<path d="M 455,791 Z" fill="none" stroke="black" stroke-width="2"/>
<path d="M 487,735 Z" fill="none" stroke="black" stroke-width="2"/>
<path d="M 495,726 Z" fill="none" stroke="black" stroke-width="2"/>
<path d="M 527,692 Z" fill="none" stroke="black" stroke-width="2"/>
<path d="M 735,691 Z" fill="none" stroke="black" stroke-width="2"/>
<path d="M 658,681 Z" fill="none" stroke="black" stroke-width="2"/>
<path d="M 697,678 Z" fill="none" stroke="black" stroke-width="2"/>
<path d="M 688,676 Z" fill="none" stroke="black" stroke-width="2"/>
<path d="M 683,676 Z" fill="none" stroke="black" stroke-width="2"/>
<path d="M 678,676 Z" fill="none" stroke="black" stroke-width="2"/>
<path d="M 675,676 Z" fill="none" stroke="black" stroke-width="2"/>
<path d="M 942,658 Z" fill="none" stroke="black" stroke-width="2"/>
<path d="M 920,622 Z" fill="none" stroke="black" stroke-width="2"/>
<path d="M 607,596 Z" fill="none" stroke="black" stroke-width="2"/>
<path d="M 626,560 Z" fill="none" stroke="black" stroke-width="2"/>
<path d="M 631,540 L 630,541 L 631,542 Z" fill="none" stroke="black" stroke-width="2"/>
<path d="M 621,504 Z" fill="none" stroke="black" stroke-width="2"/>
<path d="M 848,488 L 848,489 L 849,490 L 848,491 L 848,492 L 848,491 L 849,490 L 848,489 Z" fill="none" stroke="black" stroke-width="2"/>
<path d="M 848,486 L 849,486 Z" fill="none" stroke="black" stroke-width="2"/>
<path d="M 848,482 L 848,484 L 849,483 Z" fill="none" stroke="black" stroke-width="2"/>
<path d="M 856,467 Z" fill="none" stroke="black" stroke-width="2"/>
<path d="M 862,453 Z" fill="none" stroke="black" stroke-width="2"/>
<path d="M 575,429 Z" fill="none" stroke="black" stroke-width="2"/>
<path d="M 944,347 Z" fill="none" stroke="black" stroke-width="2"/>
<path d="M 786,345 Z" fill="none" stroke="black" stroke-width="2"/>
<path d="M 752,336 Z" fill="none" stroke="black" stroke-width="2"/>
<path d="M 852,318 Z" fill="none" stroke="black" stroke-width="2"/>
<path d="M 976,310 Z" fill="none" stroke="black" stroke-width="2"/>
<path d="M 704,304 Z" fill="none" stroke="black" stroke-width="2"/>
<path d="M 1024,230 Z" fill="none" stroke="black" stroke-width="2"/>
<path d="M 454,228 Z" fill="none" stroke="black" stroke-width="2"/>
<path d="M 995,220 L 1005,220 Z" fill="none" stroke="black" stroke-width="2"/>
<path d="M 982,219 L 981,220 L 976,220 L 975,221 L 974,221 L 974,222 L 973,223 L 972,222 L 971,223 L 972,224 L 971,225 L 969,225 L 968,226 L 967,225 L 966,225 L 965,226 L 964,226 L 960,230 L 959,230 L 959,231 L 957,233 L 956,233 L 954,235 L 954,236 L 953,237 L 952,237 L 951,238 L 951,239 L 950,240 L 949,240 L 948,241 L 948,242 L 947,243 L 946,242 L 947,243 L 946,244 L 945,244 L 944,245 L 943,244 L 943,241 L 940,244 L 939,244 L 939,245 L 937,247 L 937,248 L 933,252 L 932,252 L 930,254 L 930,256 L 928,258 L 926,258 L 926,259 L 923,262 L 922,262 L 921,263 L 921,264 L 920,265 L 919,264 L 919,263 L 919,264 L 917,266 L 916,266 L 916,267 L 915,268 L 914,268 L 914,269 L 912,271 L 911,271 L 908,274 L 908,275 L 905,278 L 905,279 L 904,280 L 903,279 L 896,286 L 895,285 L 895,283 L 895,284 L 894,285 L 893,284 L 894,285 L 893,286 L 892,286 L 891,287 L 891,288 L 888,291 L 888,292 L 886,294 L 885,294 L 883,296 L 882,295 L 883,296 L 881,298 L 880,298 L 878,300 L 877,300 L 876,301 L 875,301 L 876,302 L 875,303 L 874,303 L 874,304 L 873,305 L 872,304 L 871,304 L 870,303 L 868,305 L 868,306 L 866,308 L 865,308 L 865,309 L 864,310 L 864,311 L 863,312 L 862,312 L 863,313 L 862,314 L 860,314 L 858,316 L 857,316 L 856,317 L 854,317 L 854,319 L 853,320 L 850,320 L 850,321 L 848,323 L 847,322 L 847,321 L 846,322 L 845,322 L 842,325 L 841,325 L 841,326 L 840,327 L 839,327 L 838,326 L 838,328 L 837,329 L 836,329 L 835,330 L 834,330 L 835,331 L 833,333 L 831,331 L 828,334 L 827,334 L 826,335 L 826,336 L 825,337 L 824,337 L 823,336 L 823,335 L 822,335 L 819,338 L 818,337 L 818,338 L 816,340 L 814,338 L 814,339 L 813,340 L 810,340 L 807,343 L 806,342 L 806,343 L 805,344 L 804,343 L 803,344 L 800,344 L 799,343 L 799,342 L 799,343 L 800,344 L 798,346 L 797,345 L 797,344 L 796,345 L 794,345 L 793,346 L 792,346 L 791,345 L 790,346 L 789,345 L 789,346 L 788,347 L 785,347 L 784,346 L 782,348 L 780,346 L 780,347 L 779,348 L 778,347 L 777,347 L 776,346 L 777,345 L 778,345 L 777,345 L 776,344 L 776,346 L 775,347 L 774,347 L 772,349 L 770,347 L 770,346 L 768,346 L 767,345 L 766,346 L 765,345 L 765,344 L 765,345 L 764,346 L 763,345 L 763,343 L 762,344 L 761,344 L 760,343 L 758,343 L 757,342 L 758,341 L 757,342 L 756,341 L 756,340 L 754,340 L 753,339 L 753,338 L 752,338 L 752,339 L 751,340 L 748,337 L 746,337 L 744,335 L 743,335 L 740,332 L 740,331 L 739,332 L 737,330 L 737,329 L 736,329 L 736,330 L 735,331 L 734,331 L 733,330 L 734,329 L 733,330 L 731,328 L 731,326 L 729,326 L 728,325 L 728,323 L 728,324 L 727,325 L 726,325 L 725,324 L 724,325 L 722,323 L 722,322 L 721,322 L 720,321 L 720,320 L 719,320 L 718,319 L 719,318 L 718,318 L 717,317 L 716,317 L 714,315 L 713,315 L 712,314 L 712,313 L 711,313 L 709,311 L 709,310 L 707,310 L 706,309 L 707,308 L 708,308 L 706,308 L 705,307 L 706,306 L 702,306 L 701,305 L 701,304 L 700,304 L 699,303 L 699,302 L 700,301 L 699,302 L 698,301 L 698,300 L 697,299 L 697,298 L 696,297 L 695,297 L 694,296 L 693,296 L 692,295 L 692,293 L 691,292 L 691,291 L 689,289 L 690,288 L 689,289 L 688,288 L 688,286 L 688,289 L 687,290 L 684,287 L 684,285 L 680,281 L 680,280 L 679,281 L 678,281 L 677,280 L 677,278 L 674,275 L 674,274 L 673,274 L 672,273 L 672,271 L 671,271 L 670,270 L 670,269 L 669,269 L 668,268 L 668,266 L 664,262 L 664,261 L 664,264 L 663,265 L 661,263 L 661,262 L 660,261 L 660,259 L 657,256 L 657,255 L 656,254 L 656,252 L 656,253 L 655,254 L 651,250 L 651,249 L 650,248 L 649,248 L 648,247 L 648,246 L 647,245 L 647,243 L 645,241 L 645,240 L 644,240 L 642,238 L 643,237 L 642,238 L 641,237 L 641,236 L 640,235 L 640,236 L 639,237 L 638,237 L 636,235 L 636,234 L 634,232 L 633,232 L 632,231 L 632,230 L 631,231 L 629,229 L 628,229 L 625,226 L 624,226 L 622,224 L 622,223 L 621,223 L 620,222 L 619,222 L 618,221 L 617,221 L 616,220 L 616,221 L 618,223 L 618,224 L 619,225 L 619,226 L 618,227 L 614,223 L 452,223 L 457,228 L 457,229 L 459,231 L 459,232 L 461,234 L 461,235 L 464,238 L 464,239 L 467,242 L 467,243 L 469,245 L 469,246 L 471,248 L 471,249 L 470,250 L 467,247 L 467,246 L 465,244 L 465,243 L 462,240 L 462,239 L 459,236 L 459,235 L 457,233 L 457,232 L 456,231 L 457,232 L 457,234 L 456,235 L 456,237 L 458,239 L 458,242 L 459,243 L 459,246 L 460,247 L 459,248 L 460,249 L 460,253 L 462,255 L 461,256 L 460,256 L 461,256 L 462,257 L 461,258 L 462,259 L 462,262 L 463,263 L 463,265 L 463,261 L 464,260 L 465,261 L 465,262 L 466,263 L 466,265 L 467,266 L 467,267 L 468,268 L 468,269 L 469,270 L 469,272 L 471,274 L 470,275 L 471,276 L 472,275 L 473,276 L 473,278 L 475,280 L 475,281 L 476,282 L 476,283 L 477,284 L 476,285 L 477,285 L 478,286 L 478,289 L 479,290 L 479,291 L 480,290 L 482,292 L 481,293 L 483,295 L 483,296 L 486,299 L 486,301 L 487,302 L 487,301 L 488,300 L 489,301 L 489,302 L 490,303 L 490,304 L 491,305 L 491,306 L 492,307 L 492,309 L 494,311 L 494,312 L 495,312 L 496,311 L 498,313 L 498,314 L 499,315 L 499,317 L 500,318 L 500,320 L 501,321 L 501,322 L 502,322 L 503,323 L 503,324 L 505,324 L 506,325 L 505,326 L 507,328 L 507,330 L 508,330 L 509,331 L 509,333 L 510,334 L 511,334 L 512,335 L 511,336 L 511,337 L 512,336 L 514,338 L 514,340 L 519,345 L 519,346 L 520,347 L 520,348 L 522,350 L 522,351 L 524,353 L 524,354 L 526,356 L 526,357 L 527,358 L 529,358 L 530,359 L 529,360 L 530,361 L 530,362 L 532,364 L 532,365 L 535,368 L 535,370 L 536,370 L 538,372 L 538,373 L 539,374 L 540,374 L 541,375 L 541,376 L 540,377 L 541,376 L 542,377 L 542,379 L 543,379 L 547,383 L 547,384 L 548,385 L 548,387 L 550,389 L 550,391 L 551,392 L 551,393 L 552,392 L 553,392 L 554,393 L 554,396 L 555,397 L 555,398 L 556,399 L 556,400 L 558,402 L 558,404 L 559,405 L 559,403 L 560,402 L 561,403 L 561,404 L 562,405 L 562,406 L 563,406 L 564,407 L 563,408 L 565,410 L 565,411 L 566,411 L 567,412 L 567,413 L 568,414 L 568,415 L 569,415 L 570,416 L 570,419 L 573,422 L 573,424 L 575,426 L 575,427 L 576,427 L 578,429 L 578,431 L 582,435 L 582,436 L 583,437 L 584,437 L 586,439 L 585,440 L 587,442 L 587,444 L 589,446 L 590,446 L 591,447 L 590,448 L 591,449 L 591,450 L 592,451 L 592,452 L 593,453 L 593,454 L 595,456 L 595,457 L 596,458 L 596,459 L 599,462 L 599,463 L 602,466 L 602,468 L 603,468 L 604,469 L 603,470 L 606,473 L 606,474 L 607,475 L 607,476 L 610,479 L 610,480 L 611,480 L 612,481 L 612,482 L 611,483 L 612,483 L 613,484 L 612,485 L 614,487 L 614,488 L 615,489 L 615,490 L 616,491 L 616,490 L 617,489 L 618,490 L 618,495 L 619,495 L 620,496 L 620,498 L 621,499 L 621,500 L 622,501 L 622,502 L 623,503 L 623,506 L 622,507 L 623,506 L 624,507 L 624,508 L 625,509 L 624,510 L 623,510 L 625,510 L 626,511 L 625,512 L 625,514 L 626,514 L 627,515 L 626,516 L 626,517 L 628,519 L 627,520 L 627,521 L 628,522 L 627,523 L 628,524 L 628,526 L 630,528 L 630,529 L 631,530 L 631,531 L 630,532 L 629,531 L 630,532 L 630,534 L 631,535 L 631,538 L 631,529 L 632,528 L 634,530 L 633,531 L 633,532 L 634,532 L 635,533 L 634,534 L 635,535 L 634,536 L 634,538 L 635,539 L 634,540 L 635,541 L 635,543 L 634,544 L 634,545 L 635,546 L 634,547 L 634,548 L 635,549 L 634,550 L 634,551 L 633,552 L 633,553 L 632,554 L 631,553 L 631,548 L 630,547 L 631,546 L 631,545 L 630,544 L 629,544 L 630,544 L 631,545 L 631,546 L 630,547 L 629,547 L 630,547 L 631,548 L 630,549 L 630,552 L 631,553 L 630,554 L 630,555 L 629,556 L 629,557 L 628,558 L 629,559 L 628,560 L 628,561 L 627,562 L 627,563 L 625,565 L 625,566 L 626,567 L 624,569 L 624,572 L 623,573 L 623,574 L 622,575 L 622,577 L 621,578 L 620,577 L 621,578 L 618,581 L 618,583 L 616,585 L 615,585 L 614,584 L 615,585 L 613,587 L 614,588 L 612,590 L 612,591 L 611,592 L 610,592 L 610,594 L 609,595 L 609,597 L 608,598 L 606,598 L 605,599 L 605,601 L 603,603 L 603,604 L 600,607 L 599,607 L 599,608 L 598,609 L 598,610 L 597,611 L 597,612 L 595,614 L 595,615 L 592,618 L 592,619 L 590,621 L 590,622 L 588,624 L 587,624 L 586,625 L 586,626 L 584,628 L 583,627 L 583,628 L 582,629 L 581,629 L 582,630 L 581,631 L 580,631 L 580,633 L 579,634 L 578,634 L 578,635 L 577,636 L 576,636 L 577,637 L 576,638 L 575,638 L 575,640 L 574,641 L 573,641 L 573,642 L 569,646 L 569,647 L 568,648 L 568,649 L 567,650 L 566,650 L 565,651 L 565,652 L 563,654 L 562,654 L 563,655 L 562,656 L 562,657 L 560,659 L 559,658 L 559,657 L 558,657 L 558,658 L 557,659 L 556,659 L 556,661 L 555,662 L 554,662 L 554,665 L 552,667 L 551,666 L 550,667 L 550,668 L 549,669 L 548,669 L 548,670 L 547,671 L 547,673 L 546,674 L 545,674 L 545,675 L 544,676 L 543,675 L 543,674 L 542,675 L 543,676 L 542,677 L 541,677 L 540,678 L 541,679 L 540,680 L 539,680 L 539,681 L 538,682 L 538,683 L 537,684 L 536,684 L 535,685 L 534,685 L 533,686 L 533,687 L 532,688 L 532,689 L 529,692 L 529,693 L 528,694 L 526,694 L 526,695 L 524,697 L 524,698 L 523,699 L 522,699 L 522,700 L 520,702 L 519,702 L 518,703 L 518,704 L 517,705 L 516,705 L 516,706 L 515,707 L 514,707 L 513,708 L 513,709 L 512,710 L 511,709 L 510,710 L 510,712 L 509,713 L 508,713 L 508,715 L 505,718 L 505,720 L 504,721 L 503,720 L 503,719 L 503,720 L 502,721 L 500,721 L 500,723 L 497,726 L 497,728 L 496,729 L 494,729 L 492,731 L 493,732 L 492,733 L 490,733 L 490,736 L 488,738 L 487,737 L 486,738 L 486,739 L 482,743 L 482,744 L 483,745 L 480,748 L 479,748 L 479,749 L 478,750 L 477,750 L 477,753 L 476,754 L 475,754 L 474,755 L 474,757 L 471,760 L 471,761 L 470,762 L 470,763 L 469,764 L 468,764 L 468,765 L 466,767 L 467,768 L 466,769 L 466,770 L 465,771 L 465,772 L 464,773 L 463,772 L 463,769 L 463,770 L 461,772 L 462,773 L 461,774 L 460,774 L 460,775 L 461,776 L 461,777 L 460,778 L 460,781 L 459,782 L 459,783 L 458,784 L 458,786 L 459,787 L 459,788 L 458,789 L 458,791 L 454,795 L 461,788 L 462,789 L 462,790 L 453,799 L 453,800 L 449,804 L 496,804 L 497,803 L 497,802 L 507,792 L 508,793 L 508,794 L 499,803 L 499,804 L 497,806 L 502,806 L 504,804 L 505,804 L 506,803 L 507,803 L 510,800 L 512,800 L 512,799 L 514,797 L 516,797 L 516,796 L 517,795 L 518,795 L 518,794 L 519,793 L 520,794 L 520,795 L 523,792 L 523,790 L 525,788 L 526,788 L 526,787 L 527,786 L 528,787 L 529,787 L 530,786 L 530,785 L 531,784 L 532,784 L 531,783 L 532,782 L 533,782 L 535,780 L 536,781 L 538,779 L 539,779 L 540,778 L 540,777 L 541,776 L 542,776 L 541,775 L 543,773 L 544,774 L 544,777 L 544,774 L 545,773 L 546,773 L 546,772 L 547,771 L 548,771 L 549,770 L 549,769 L 550,768 L 552,768 L 552,766 L 553,765 L 555,765 L 554,764 L 555,763 L 557,763 L 557,762 L 558,761 L 560,761 L 561,760 L 561,759 L 563,757 L 563,756 L 564,755 L 565,755 L 565,753 L 566,752 L 567,752 L 568,753 L 567,754 L 568,755 L 568,753 L 569,752 L 570,752 L 570,751 L 576,745 L 576,744 L 577,743 L 577,742 L 580,739 L 580,738 L 581,737 L 582,737 L 581,736 L 582,735 L 583,735 L 584,736 L 585,736 L 584,735 L 585,734 L 586,734 L 587,733 L 587,732 L 588,731 L 588,730 L 589,729 L 590,729 L 590,727 L 591,726 L 592,727 L 592,731 L 593,730 L 593,729 L 594,728 L 593,727 L 595,725 L 596,725 L 596,724 L 599,721 L 600,721 L 602,719 L 602,718 L 603,717 L 604,717 L 605,716 L 605,715 L 606,714 L 607,714 L 608,715 L 608,714 L 610,712 L 610,711 L 611,710 L 612,710 L 614,708 L 614,707 L 615,706 L 616,707 L 617,706 L 617,705 L 618,704 L 619,704 L 619,703 L 620,702 L 621,702 L 623,700 L 624,700 L 624,699 L 627,696 L 628,697 L 629,696 L 628,695 L 629,694 L 633,694 L 632,693 L 633,692 L 634,692 L 635,693 L 635,692 L 636,691 L 636,690 L 637,689 L 638,689 L 638,688 L 639,687 L 640,688 L 640,689 L 642,687 L 643,687 L 644,686 L 645,686 L 645,685 L 646,684 L 650,684 L 652,682 L 653,682 L 654,681 L 654,680 L 655,679 L 656,680 L 656,683 L 657,683 L 656,682 L 656,680 L 657,679 L 659,679 L 660,680 L 661,680 L 660,679 L 662,677 L 663,678 L 664,677 L 665,678 L 669,674 L 670,675 L 671,674 L 672,675 L 672,676 L 674,674 L 675,674 L 676,673 L 677,674 L 678,674 L 679,673 L 685,673 L 686,674 L 687,673 L 688,674 L 692,674 L 693,675 L 692,674 L 693,673 L 694,673 L 695,674 L 696,674 L 697,675 L 698,675 L 699,676 L 700,675 L 701,675 L 702,676 L 702,677 L 701,678 L 702,678 L 702,677 L 703,676 L 705,678 L 704,677 L 705,676 L 707,676 L 708,677 L 707,678 L 708,677 L 710,679 L 710,680 L 712,678 L 713,678 L 715,680 L 715,681 L 716,680 L 717,681 L 718,680 L 719,681 L 719,683 L 719,682 L 720,681 L 721,682 L 721,683 L 722,684 L 723,684 L 724,685 L 724,686 L 726,686 L 727,687 L 726,688 L 728,686 L 729,686 L 730,687 L 731,687 L 732,688 L 732,689 L 733,688 L 734,689 L 735,689 L 736,688 L 737,689 L 738,689 L 739,690 L 739,691 L 740,691 L 741,692 L 742,691 L 743,692 L 743,693 L 744,694 L 743,695 L 744,696 L 744,697 L 745,696 L 746,697 L 746,698 L 749,701 L 750,701 L 751,702 L 750,703 L 751,703 L 751,702 L 752,701 L 754,703 L 755,703 L 756,704 L 756,706 L 758,708 L 758,709 L 759,709 L 759,708 L 760,707 L 761,707 L 764,710 L 764,711 L 766,713 L 765,714 L 766,714 L 767,715 L 767,716 L 768,717 L 768,718 L 769,719 L 769,720 L 770,720 L 771,721 L 771,723 L 772,724 L 772,725 L 773,724 L 774,725 L 774,728 L 775,729 L 776,728 L 778,728 L 779,729 L 779,730 L 778,731 L 779,731 L 780,732 L 780,733 L 782,735 L 782,736 L 783,737 L 783,738 L 783,736 L 784,735 L 786,737 L 786,738 L 787,739 L 787,740 L 789,742 L 790,742 L 791,743 L 790,744 L 789,744 L 790,744 L 791,745 L 791,746 L 793,748 L 792,749 L 795,752 L 795,753 L 798,756 L 798,758 L 799,758 L 799,756 L 800,755 L 802,755 L 803,756 L 803,758 L 804,759 L 804,760 L 806,762 L 806,763 L 807,763 L 809,765 L 809,766 L 810,766 L 811,767 L 810,768 L 811,768 L 812,769 L 811,770 L 812,771 L 813,770 L 814,771 L 814,774 L 817,777 L 817,778 L 821,782 L 821,783 L 823,785 L 823,783 L 824,782 L 827,785 L 827,786 L 828,787 L 828,788 L 829,789 L 830,789 L 831,790 L 831,791 L 832,790 L 834,792 L 834,793 L 836,795 L 837,795 L 838,796 L 838,798 L 839,797 L 840,798 L 840,799 L 841,799 L 842,800 L 842,801 L 844,803 L 845,803 L 846,804 L 847,804 L 848,803 L 849,804 L 851,804 L 852,805 L 853,805 L 856,808 L 858,808 L 859,809 L 860,809 L 861,810 L 863,810 L 864,811 L 865,811 L 866,812 L 867,812 L 868,813 L 869,812 L 870,813 L 871,813 L 871,812 L 872,811 L 873,812 L 877,812 L 878,813 L 879,813 L 880,814 L 882,814 L 883,815 L 884,815 L 885,816 L 885,815 L 886,814 L 887,815 L 888,815 L 889,816 L 892,816 L 893,817 L 895,817 L 896,816 L 902,816 L 903,817 L 906,817 L 907,818 L 910,818 L 911,817 L 912,818 L 913,818 L 914,817 L 915,818 L 916,817 L 918,817 L 919,818 L 921,816 L 922,817 L 925,817 L 926,818 L 927,817 L 928,817 L 929,818 L 931,818 L 932,817 L 933,818 L 934,817 L 936,817 L 937,818 L 938,818 L 939,817 L 940,818 L 943,818 L 944,817 L 945,817 L 946,816 L 947,817 L 948,817 L 949,816 L 951,816 L 952,817 L 957,817 L 958,816 L 959,816 L 960,817 L 961,817 L 962,816 L 967,816 L 967,815 L 968,814 L 979,814 L 980,813 L 981,814 L 982,813 L 983,813 L 984,812 L 985,813 L 986,813 L 987,812 L 989,812 L 990,811 L 992,811 L 993,810 L 994,810 L 995,809 L 996,810 L 997,810 L 998,809 L 1000,809 L 1001,808 L 1003,808 L 1004,807 L 1007,807 L 1007,806 L 856,806 L 855,807 L 853,805 L 853,804 L 854,803 L 855,804 L 1017,804 L 1015,802 L 1015,801 L 1013,799 L 1013,798 L 1014,797 L 1015,798 L 1016,798 L 1015,797 L 1016,796 L 1016,794 L 1015,793 L 1015,792 L 1014,791 L 1014,786 L 1013,785 L 1013,783 L 1014,782 L 1013,781 L 1013,780 L 1012,779 L 1012,776 L 1011,775 L 1012,774 L 1012,773 L 1011,772 L 1011,771 L 1010,770 L 1010,769 L 1009,768 L 1010,767 L 1009,766 L 1009,764 L 1008,763 L 1008,762 L 1008,763 L 1007,764 L 1006,763 L 1006,762 L 1005,761 L 1005,758 L 1003,756 L 1004,755 L 1002,753 L 1002,750 L 1000,748 L 1000,747 L 999,748 L 997,746 L 997,743 L 998,742 L 996,742 L 995,741 L 995,739 L 994,738 L 994,737 L 992,735 L 992,734 L 991,735 L 990,734 L 990,733 L 988,731 L 989,730 L 987,728 L 987,727 L 986,726 L 986,725 L 983,722 L 984,721 L 983,721 L 981,719 L 982,718 L 981,718 L 980,717 L 980,716 L 979,715 L 979,714 L 978,713 L 978,712 L 977,712 L 976,711 L 977,710 L 976,710 L 975,709 L 973,709 L 972,708 L 973,707 L 973,706 L 972,707 L 971,706 L 971,704 L 970,703 L 970,702 L 968,700 L 968,698 L 968,700 L 967,701 L 966,700 L 966,699 L 965,698 L 965,697 L 964,696 L 964,693 L 963,693 L 962,692 L 963,691 L 962,690 L 962,689 L 961,689 L 960,688 L 960,687 L 959,686 L 959,685 L 958,685 L 957,684 L 957,682 L 956,681 L 956,680 L 955,679 L 956,678 L 955,678 L 952,675 L 953,674 L 952,673 L 952,672 L 950,672 L 949,671 L 950,670 L 949,670 L 947,668 L 948,667 L 947,667 L 946,666 L 947,665 L 947,664 L 946,664 L 945,663 L 945,662 L 944,661 L 944,659 L 944,662 L 943,663 L 941,661 L 941,660 L 940,659 L 940,657 L 938,655 L 938,654 L 937,653 L 937,652 L 935,650 L 935,649 L 933,647 L 933,646 L 932,645 L 933,644 L 931,642 L 931,640 L 928,637 L 928,635 L 928,636 L 927,637 L 925,635 L 925,633 L 924,632 L 924,630 L 923,629 L 923,628 L 921,626 L 921,624 L 920,624 L 920,627 L 919,628 L 918,627 L 918,625 L 917,624 L 917,622 L 916,621 L 916,620 L 914,618 L 915,617 L 914,617 L 913,616 L 914,615 L 912,613 L 912,612 L 908,608 L 909,607 L 908,606 L 908,605 L 907,605 L 906,604 L 906,602 L 905,601 L 905,600 L 904,599 L 904,598 L 903,597 L 902,597 L 901,596 L 901,595 L 900,595 L 899,594 L 899,591 L 898,590 L 897,590 L 896,589 L 897,588 L 896,587 L 896,588 L 895,589 L 894,588 L 894,586 L 893,586 L 892,585 L 892,582 L 891,581 L 891,579 L 890,579 L 889,578 L 889,577 L 887,575 L 888,574 L 887,573 L 886,573 L 885,572 L 886,571 L 884,569 L 884,568 L 882,566 L 883,565 L 880,562 L 880,561 L 878,559 L 878,558 L 877,558 L 876,557 L 876,556 L 874,554 L 874,551 L 872,549 L 872,547 L 872,552 L 871,553 L 869,551 L 869,547 L 868,547 L 867,546 L 868,545 L 866,543 L 866,541 L 864,539 L 865,538 L 863,536 L 864,535 L 863,534 L 863,533 L 862,533 L 861,532 L 862,531 L 861,530 L 861,528 L 860,528 L 859,527 L 860,526 L 860,525 L 858,523 L 858,520 L 856,518 L 857,517 L 856,516 L 856,515 L 856,519 L 855,520 L 854,519 L 854,516 L 853,515 L 854,514 L 853,515 L 852,514 L 852,512 L 851,511 L 852,510 L 851,510 L 850,509 L 850,508 L 851,507 L 852,508 L 851,507 L 851,506 L 850,505 L 850,504 L 849,503 L 849,502 L 848,501 L 848,500 L 849,499 L 849,498 L 848,497 L 848,499 L 847,500 L 846,499 L 846,497 L 845,496 L 845,494 L 846,493 L 846,490 L 844,488 L 845,487 L 845,486 L 846,485 L 845,484 L 846,483 L 846,481 L 845,480 L 846,479 L 845,478 L 847,476 L 848,477 L 848,478 L 849,479 L 848,478 L 848,476 L 849,475 L 849,474 L 848,473 L 850,471 L 850,467 L 852,465 L 852,463 L 854,461 L 854,460 L 853,459 L 854,458 L 855,458 L 856,459 L 856,465 L 856,460 L 857,459 L 857,457 L 858,456 L 858,455 L 859,454 L 860,454 L 860,452 L 861,451 L 861,450 L 860,449 L 861,448 L 862,448 L 862,447 L 863,446 L 862,445 L 863,444 L 864,444 L 864,443 L 865,442 L 864,441 L 866,439 L 866,437 L 870,433 L 869,432 L 870,431 L 870,430 L 871,429 L 872,430 L 872,434 L 872,431 L 873,430 L 874,431 L 874,432 L 874,431 L 873,430 L 874,429 L 875,429 L 875,428 L 876,427 L 876,426 L 878,424 L 879,424 L 879,423 L 880,422 L 880,420 L 881,419 L 882,419 L 882,417 L 884,415 L 884,414 L 885,413 L 885,412 L 886,411 L 888,411 L 888,409 L 889,408 L 890,408 L 889,407 L 889,406 L 890,405 L 891,405 L 892,404 L 892,403 L 893,402 L 893,401 L 895,399 L 896,400 L 896,399 L 897,398 L 898,399 L 898,398 L 897,397 L 898,396 L 900,396 L 900,395 L 901,394 L 901,392 L 902,391 L 903,392 L 904,392 L 904,391 L 908,387 L 907,386 L 909,384 L 910,384 L 909,383 L 911,381 L 911,380 L 912,379 L 912,378 L 913,377 L 914,378 L 914,377 L 915,376 L 915,375 L 916,374 L 916,373 L 918,371 L 918,370 L 919,369 L 920,370 L 920,372 L 920,371 L 922,369 L 923,369 L 923,367 L 927,363 L 928,364 L 929,363 L 929,362 L 930,361 L 931,361 L 931,360 L 930,359 L 931,358 L 932,358 L 932,357 L 934,355 L 934,354 L 935,353 L 936,353 L 938,351 L 938,350 L 940,348 L 940,347 L 941,346 L 942,346 L 941,345 L 943,343 L 944,344 L 944,345 L 946,343 L 946,342 L 947,341 L 947,340 L 948,339 L 949,339 L 949,337 L 950,336 L 952,336 L 952,335 L 956,331 L 957,331 L 957,330 L 960,327 L 960,325 L 964,321 L 964,318 L 965,317 L 967,317 L 970,314 L 970,313 L 971,312 L 972,312 L 972,310 L 973,309 L 974,309 L 975,308 L 976,308 L 980,304 L 979,303 L 982,300 L 982,299 L 985,296 L 985,295 L 987,293 L 987,292 L 989,290 L 989,289 L 990,288 L 989,287 L 990,286 L 991,286 L 992,287 L 993,286 L 993,284 L 994,283 L 995,283 L 995,282 L 996,281 L 997,281 L 997,279 L 998,278 L 998,277 L 999,276 L 1000,277 L 1000,278 L 1001,278 L 1001,276 L 1003,274 L 1003,273 L 1004,272 L 1004,271 L 1005,270 L 1006,270 L 1006,269 L 1007,268 L 1008,269 L 1008,268 L 1009,267 L 1008,266 L 1010,264 L 1011,264 L 1010,263 L 1010,262 L 1011,261 L 1011,260 L 1013,258 L 1013,255 L 1014,254 L 1014,253 L 1015,252 L 1016,253 L 1017,252 L 1017,250 L 1018,249 L 1018,246 L 1019,245 L 1019,242 L 1020,241 L 1020,236 L 1021,235 L 1021,234 L 1014,241 L 1013,240 L 1013,239 L 1020,232 L 1020,231 L 1028,223 L 984,223 L 978,229 L 977,228 L 977,227 L 984,220 L 993,220 L 983,220 Z" fill="none" stroke="black" stroke-width="2"/>
<path d="M 526,210 L 525,211 L 520,211 L 519,212 L 518,211 L 517,212 L 508,212 L 507,213 L 506,212 L 505,213 L 504,212 L 502,212 L 501,213 L 500,213 L 499,214 L 496,214 L 495,215 L 491,215 L 490,216 L 489,215 L 488,216 L 487,216 L 486,215 L 485,216 L 482,216 L 481,217 L 480,216 L 479,217 L 478,217 L 477,218 L 476,218 L 475,219 L 474,219 L 473,220 L 472,220 L 479,220 L 480,221 L 601,221 L 602,220 L 613,220 L 614,221 L 614,220 L 613,220 L 612,219 L 611,219 L 609,217 L 608,218 L 605,218 L 604,217 L 603,218 L 602,217 L 601,217 L 598,214 L 594,214 L 593,213 L 592,214 L 592,215 L 591,216 L 590,216 L 589,215 L 588,215 L 587,214 L 579,214 L 578,213 L 572,213 L 571,212 L 570,212 L 569,213 L 568,212 L 567,213 L 560,213 L 558,211 L 557,211 L 556,212 L 555,212 L 554,211 L 553,211 L 552,212 L 551,211 L 551,210 L 550,211 L 549,211 L 548,210 L 547,211 L 546,211 L 545,210 L 544,210 L 544,211 L 543,212 L 542,211 L 529,211 L 528,210 Z" fill="none" stroke="black" stroke-width="2"/>
</svg>